<svg width="662" height="669" viewBox="0 0 662 669" fill="none" xmlns="http://www.w3.org/2000/svg">
<path d="M516 181L510 214H215L204 151H567L536 272H169.173L143.103 102.25H627.534L594.557 221L561.579 335H178.268M594.557 468H198.823L165.845 250L132.867 35.75H34M231.8 601C231.8 619.364 217.036 634.25 198.823 634.25C180.61 634.25 165.845 619.364 165.845 601C165.845 582.636 180.61 567.75 198.823 567.75C217.036 567.75 231.8 582.636 231.8 601ZM594.557 601C594.557 619.364 579.792 634.25 561.579 634.25C543.365 634.25 528.601 619.364 528.601 601C528.601 582.636 543.365 567.75 561.579 567.75C579.792 567.75 594.557 582.636 594.557 601Z" stroke="black" stroke-width="66.6667" stroke-linecap="round" stroke-linejoin="round"/>
</svg>
