<svg width="353" height="353" viewBox="0 0 353 353" fill="none" xmlns="http://www.w3.org/2000/svg">
<g clip-path="url(#clip0_13_2)">
<path d="M10.1621 9.54535C-2.85561 22.563 -2.85561 43.6683 10.1621 56.686L129.667 176.19L10.1621 295.697C-2.85561 308.713 -2.85561 329.82 10.1621 342.837C23.1794 355.853 44.285 355.853 57.3024 342.837L176.807 223.33L296.313 342.837C309.33 355.853 330.437 355.853 343.453 342.837C356.47 329.82 356.47 308.713 343.453 295.697L223.947 176.19L343.453 56.6864C356.47 43.669 356.47 22.5633 343.453 9.54602C330.433 -3.47165 309.33 -3.47165 296.313 9.54602L176.807 129.05L57.3024 9.54535C44.285 -3.47198 23.1794 -3.47198 10.1621 9.54535Z" fill="#0F0F0F"/>
</g>
<defs>
<clipPath id="clip0_13_2">
<rect width="353" height="353" fill="white"/>
</clipPath>
</defs>
</svg>
