<svg width="700" height="700" viewBox="0 0 700 700" fill="none" xmlns="http://www.w3.org/2000/svg">
<path d="M625 0H75C33.5938 0 0 33.5938 0 75V625C0 666.406 33.5938 700 75 700H625C666.406 700 700 666.406 700 625V75C700 33.5938 666.406 0 625 0ZM375 450H300V525C300 538.75 288.75 550 275 550H225C211.25 550 200 538.75 200 525V175C200 161.25 211.25 150 225 150H375C457.656 150 525 217.344 525 300C525 382.656 457.656 450 375 450ZM375 250H300V350H375C402.5 350 425 327.5 425 300C425 272.5 402.5 250 375 250Z" fill="black"/>
</svg>
