<svg width="542" height="542" viewBox="0 0 542 542" fill="none" xmlns="http://www.w3.org/2000/svg">
<path d="M1.75796e-05 134.945C1.75796e-05 157.633 8.32052 182.57 18.8905 209.032C29.4604 235.493 43.078 260.43 53.6721 279.32C82.4068 329.219 119.438 378.344 161.766 419.148C204.094 459.953 253.993 493.984 309.914 514.399C342.422 527.242 374.93 541.61 411.212 541.61C429.352 541.61 455.064 534.813 478.477 524.969C501.165 515.149 521.555 500.031 529.126 481.891C532.149 475.094 535.922 466.024 538.196 455.43C540.47 445.61 541.969 435.765 541.969 428.969C541.969 425.195 541.969 421.398 541.219 420.648C538.946 416.101 533.649 412.328 527.602 408.554C513.984 401.758 511.735 399.484 491.321 387.39C470.157 375.296 448.243 361.679 429.328 351.859C420.258 346.562 414.211 344.288 411.937 344.288C399.844 344.288 384.726 360.929 371.883 379.07C358.265 397.21 343.148 413.851 332.578 413.851C327.281 413.851 321.984 411.578 315.937 407.804C309.89 404.031 303.843 401.008 300.07 398.734C233.555 360.929 188.953 316.352 151.172 250.586C146.625 243.015 136.055 227.148 136.055 218.828C136.055 209.007 149.672 197.663 163.266 185.57C176.109 174.226 189.727 160.632 189.727 143.991C189.727 141.718 188.203 134.921 185.18 125.101C178.383 105.437 169.313 82.7728 161.742 60.8589C157.969 50.2648 154.945 42.7183 154.171 38.9451C152.647 36.6714 151.898 33.648 151.148 29.8748C150.398 26.1015 148.874 23.0781 148.124 20.0546C145.851 13.2579 142.077 7.96088 138.304 4.93744C134.531 3.41363 125.461 1.16419 116.39 0.390185C107.32 0.390185 96.7258 -0.359619 92.2028 -0.359619C89.9291 -0.359619 86.9057 -0.359627 83.8823 0.390185H74.0621C49.8746 10.9843 32.4838 32.1484 19.6403 57.0857C7.54652 82.023 -0.0241699 110.008 -0.0241699 134.945H1.75796e-05Z" fill="black"/>
</svg>
